<svg xmlns="http://www.w3.org/2000/svg" viewBox="0 0 512 512" width="512" height="512" role="img" aria-label="Star tattoo design line art">
  <defs>
    <radialGradient id="bg" cx="50%" cy="42%" r="75%">
      <stop offset="0%" stop-color="#16213a"/>
      <stop offset="100%" stop-color="#0f172a"/>
    </radialGradient>
  </defs>
  <rect width="512" height="512" fill="url(#bg)"/>
  <rect x="20" y="20" width="472" height="472" rx="18" fill="none" stroke="#c9a227" stroke-width="2" opacity="0.85"/>
  <rect x="30" y="30" width="452" height="452" rx="12" fill="none" stroke="#c9a227" stroke-width="1" opacity="0.35"/>
  <text x="256" y="64" text-anchor="middle" font-family="Georgia, serif" font-size="12" letter-spacing="3" fill="#64748b">TATTOO MEANING</text>
  <g stroke="#c9a227" stroke-width="2.5" fill="none" stroke-linecap="round"><circle cx="256" cy="196" r="34"/><line x1="300.0" y1="196.0" x2="316.0" y2="196.0"/><line x1="294.1" y1="218.0" x2="308.0" y2="226.0"/><line x1="278.0" y1="234.1" x2="286.0" y2="248.0"/><line x1="256.0" y1="240.0" x2="256.0" y2="256.0"/><line x1="234.0" y1="234.1" x2="226.0" y2="248.0"/><line x1="217.9" y1="218.0" x2="204.0" y2="226.0"/><line x1="212.0" y1="196.0" x2="196.0" y2="196.0"/><line x1="217.9" y1="174.0" x2="204.0" y2="166.0"/><line x1="234.0" y1="157.9" x2="226.0" y2="144.0"/><line x1="256.0" y1="152.0" x2="256.0" y2="136.0"/><line x1="278.0" y1="157.9" x2="286.0" y2="144.0"/><line x1="294.1" y1="174.0" x2="308.0" y2="166.0"/><path d="M340 116 L343 123 L350 126 L343 129 L340 136 L337 129 L330 126 L337 123 Z" fill="#c9a227" stroke="none"/></g>
  <line x1="176" y1="372" x2="336" y2="372" stroke="#c9a227" stroke-width="1" opacity="0.5"/>
  <text x="256" y="408" text-anchor="middle" font-family="Georgia, serif" font-size="32" font-weight="700" letter-spacing="1" fill="#f1f5f9">STAR</text>
  <text x="256" y="438" text-anchor="middle" font-family="Georgia, serif" font-size="13" letter-spacing="2" fill="#94a3b8">GEOMETRIC</text>
</svg>
