<svg xmlns="http://www.w3.org/2000/svg" viewBox="0 0 1200 675" width="1200" height="675" role="img" aria-label="Tattoo portfolio website examples hero">
  <defs>
    <linearGradient id="bg" x1="0" y1="0" x2="1" y2="1">
      <stop offset="0" stop-color="#0b0b10"/>
      <stop offset="1" stop-color="#15131f"/>
    </linearGradient>
    <linearGradient id="acc" x1="0" y1="0" x2="1" y2="1">
      <stop offset="0" stop-color="#f0a35e"/>
      <stop offset="1" stop-color="#e07a4f"/>
    </linearGradient>
    <radialGradient id="glow" cx="0.5" cy="0.42" r="0.55">
      <stop offset="0" stop-color="#f0a35e" stop-opacity="0.18"/>
      <stop offset="1" stop-color="#f0a35e" stop-opacity="0"/>
    </radialGradient>
  </defs>
  <rect width="1200" height="675" fill="url(#bg)"/>
  <rect width="1200" height="675" fill="url(#glow)"/>
  <g fill="none" stroke="url(#acc)" stroke-width="3" opacity="0.9">
    <path d="M150 520 C 320 360, 520 360, 700 470 S 980 520, 1080 430" stroke-linecap="round"/>
  </g>
  <!-- Gallery grid -->
  <g transform="translate(280,260)" fill="none" stroke="url(#acc)" stroke-width="2" opacity="0.7">
    <rect x="0" y="0" width="90" height="70" rx="4"/>
    <rect x="105" y="0" width="90" height="70" rx="4"/>
    <rect x="210" y="0" width="90" height="70" rx="4"/>
    <rect x="0" y="85" width="90" height="70" rx="4"/>
    <rect x="105" y="85" width="90" height="70" rx="4"/>
    <rect x="210" y="85" width="90" height="70" rx="4"/>
    <!-- Mini image icons inside -->
    <circle cx="45" cy="35" r="12" opacity="0.4"/>
    <circle cx="150" cy="35" r="12" opacity="0.4"/>
    <circle cx="255" cy="35" r="12" opacity="0.4"/>
    <circle cx="45" cy="120" r="12" opacity="0.4"/>
    <circle cx="150" cy="120" r="12" opacity="0.4"/>
    <circle cx="255" cy="120" r="12" opacity="0.4"/>
  </g>
  <text x="80" y="160" font-family="Georgia, 'Times New Roman', serif" font-size="58" font-weight="700" fill="#ffffff">Portfolio Website Examples</text>
  <text x="82" y="215" font-family="Georgia, 'Times New Roman', serif" font-size="30" fill="#f0a35e">Get inspired by the best artist sites</text>
</svg>
